:SAMPLES-PER-SECOND 30
:FULLY-SPECIFIED
:DEGREES
295
root  2.37726 33.9893 -5.44977 2.92672 39.4536 -1.17378
LeftUpLeg  -12.4742 0.751536 9.09058
LeftLeg  11.746 -7.1764 -1.01537
LeftFoot  6.88377 0.0533941 -0.887755
LeftToes  -26.9163 8.556e-007 1.17171e-007
Spine  2.75034 1.04446 1.06918
Spine1  5.45483 1.99624 2.31638
RightShoulder  0.0188331 5.55904 7.21114
RightArm  -36.2087 -25.3535 72.2059
RightForeArm  33.6121 13.4833 2.41646
RightHand  0.77493 -13.0981 -6.36927
LeftShoulder1  0.0180425 1.04828 -10.387
LeftArm  -17.0242 15.157 -69.4506
LeftForeArm  28.4825 -15.4864 -2.79458
LeftHand  0.161195 5.23412 3.15139
HEad  -16.0218 37.8276 -11.2378
RightUpLeg  -4.98658 -5.91702 -2.09642
RightLeg  8.92195 -1.20386 -0.108883
RightFoot  1.09755 0.000321211 -0.00379496
RightToes  -36.858 -0.193883 -0.29653
296
root  2.13446 33.9817 -5.35762 2.55915 39.6998 -1.75612
LeftUpLeg  -13.0373 0.185702 9.93824
LeftLeg  12.4638 -6.69004 -1.0325
LeftFoot  6.95365 0.0512276 -0.838804
LeftToes  -27.3491 8.556e-007 1.17171e-007
Spine  2.77817 0.968673 1.32077
Spine1  5.51753 1.83905 2.79271
RightShoulder  0.0199428 5.48602 7.1169
RightArm  -35.1498 -24.8541 71.6267
RightForeArm  34.0227 13.5564 2.42974
RightHand  0.781381 -12.9159 -6.52162
LeftShoulder1  0.0180425 1.01095 -10.1281
LeftArm  -16.9631 15.2106 -69.973
LeftForeArm  28.6889 -15.2085 -2.74188
LeftHand  0.151566 5.31138 2.89304
HEad  -15.794 37.8554 -11.0911
RightUpLeg  -4.95326 -5.93236 -1.19779
RightLeg  8.60057 -1.45396 -0.123564
RightFoot  1.17252 0.000171676 -0.0145298
RightToes  -36.2675 -0.189374 -0.293081
297
root  1.89102 33.9558 -5.28063 2.10287 39.8214 -2.45015
LeftUpLeg  -13.7193 -0.69802 10.9109
LeftLeg  13.4929 -5.8562 -1.01241
LeftFoot  6.80834 0.0449143 -0.727604
LeftToes  -27.8104 8.556e-007 1.17171e-007
Spine  2.85765 0.973056 1.58335
Spine1  5.68019 1.83729 3.29059
RightShoulder  0.027565 5.51266 7.21527
RightArm  -35.0835 -23.7777 70.7827
RightForeArm  34.2828 13.5565 2.42955
RightHand  0.766611 -13.0573 -6.31803
LeftShoulder1  0.0180425 1.02666 -9.89948
LeftArm  -17.019 15.0482 -70.5555
LeftForeArm  28.845 -15.3092 -2.76085
LeftHand  0.143905 5.45334 2.67197
HEad  -17.3959 37.4763 -11.6009
RightUpLeg  -5.13048 -6.19584 -0.246998
RightLeg  8.68451 -1.32883 -0.114774
RightFoot  1.05886 -0.000711988 -0.0141335
RightToes  -35.5974 -0.184303 -0.288926
298
root  1.65827 33.9167 -5.21162 1.71759 39.8239 -3.09331
LeftUpLeg  -14.4307 -1.59993 11.8515
LeftLeg  14.5829 -4.92371 -0.948698
LeftFoot  6.57816 0.0376355 -0.603366
LeftToes  -28.2497 8.556e-007 1.17171e-007
Spine  2.93978 1.06816 1.80305
Spine1  5.84453 2.02183 3.70063
RightShoulder  0.0392258 5.62061 7.50221
RightArm  -35.5791 -22.5233 69.7679
RightForeArm  33.7324 13.708 2.45821
RightHand  0.800631 -13.287 -6.49267
LeftShoulder1  0.0180425 0.972035 -9.81264
LeftArm  -17.0982 14.8636 -70.9964
LeftForeArm  28.4302 -15.7323 -2.84127
LeftHand  0.14447 5.37167 2.7962
HEad  -18.6888 36.9721 -11.9679
RightUpLeg  -5.50139 -6.90929 0.631408
RightLeg  9.08344 -0.639583 -0.0590149
RightFoot  0.737187 -0.00238377 -0.00175238
RightToes  -34.9092 -0.179146 -0.284422
299
root  1.44505 33.8769 -5.13631 1.25933 39.7045 -3.75336
LeftUpLeg  -14.9252 -2.32263 12.7811
LeftLeg  15.4819 -4.04537 -0.846173
LeftFoot  6.36421 0.0311509 -0.493197
LeftToes  -28.6765 8.556e-007 1.17171e-007
Spine  2.97033 1.22505 2.06198
Spine1  5.90463 2.33656 4.18156
RightShoulder  0.0530482 5.90881 7.62985
RightArm  -36.2714 -21.2823 68.7564
RightForeArm  32.6471 13.866 2.48851
RightHand  0.900485 -13.3694 -7.29832
LeftShoulder1  0.0180425 0.846798 -9.77432
LeftArm  -16.9557 14.9022 -71.4626
LeftForeArm  27.5663 -16.6607 -3.01891
LeftHand  0.147387 5.17008 2.88983
HEad  -18.5817 36.5696 -12.0381
RightUpLeg  -5.78057 -7.45836 1.5033
RightLeg  9.46972 0.00381723 0.00178819
RightFoot  0.420419 -0.00359629 0.00326038
RightToes  -34.2158 -0.174003 -0.280173
300
root  1.26122 33.8381 -5.05349 0.78156 39.4305 -4.34435
LeftUpLeg  -15.1932 -3.02763 13.6451
LeftLeg  16.2385 -3.08849 -0.689439
LeftFoot  6.16714 0.0244324 -0.380884
LeftToes  -29.2632 8.556e-007 1.17171e-007
Spine  2.95526 1.41251 2.32524
Spine1  5.87227 2.72421 4.65699
RightShoulder  0.0689472 6.20086 7.61023
RightArm  -36.8721 -19.9042 67.8494
RightForeArm  31.6763 14.0533 2.5242
RightHand  1.02432 -13.6289 -8.18226
LeftShoulder1  0.0180425 0.93314 -9.65801
LeftArm  -16.3795 14.9533 -72.0509
LeftForeArm  27.0971 -17.8594 -3.25068
LeftHand  0.145021 5.30222 2.75764
HEad  -17.5623 36.5369 -11.8246
RightUpLeg  -5.99592 -7.64659 2.28622
RightLeg  9.93898 0.471097 0.0530068
RightFoot  0.0954798 -0.00438442 0.00146159
RightToes  -33.7305 -0.170435 -0.27704
301
root  1.08994 33.8014 -4.97038 0.391407 38.9955 -4.72141
LeftUpLeg  -15.3205 -3.51983 14.3252
LeftLeg  16.9576 -2.21308 -0.524005
LeftFoot  5.99662 0.0185506 -0.282826
LeftToes  -29.6276 8.556e-007 1.17171e-007
Spine  2.97531 1.63395 2.52775
Spine1  5.90719 3.19066 5.00662
RightShoulder  0.0844208 6.37011 7.61254
RightArm  -37.2471 -18.2866 67.0061
RightForeArm  30.754 14.4928 2.60715
RightHand  1.09395 -13.7421 -8.68561
LeftShoulder1  0.0180425 1.17528 -9.65779
LeftArm  -15.7561 14.7081 -72.501
LeftForeArm  27.0327 -18.8257 -3.43975
LeftHand  0.131062 5.25071 2.48448
HEad  -17.356 36.6018 -11.7773
RightUpLeg  -6.29177 -7.73746 2.89899
RightLeg  10.7211 0.975279 0.121702
RightFoot  -0.409045 -0.00478883 -0.00650191
RightToes  -32.9627 -0.164846 -0.272096
302
root  0.924199 33.768 -4.88631 0.0360005 38.6078 -5.05425
LeftUpLeg  -15.3209 -3.95185 14.9634
LeftLeg  17.394 -1.48223 -0.36366
LeftFoot  5.93654 0.0139333 -0.205435
LeftToes  -30.004 8.556e-007 1.17171e-007
Spine  3.04182 1.81535 2.67496
Spine1  6.03182 3.58634 5.23839
RightShoulder  0.0987871 6.45481 7.73402
RightArm  -37.0002 -16.6447 66.2318
RightForeArm  29.5538 15.4604 2.79041
RightHand  1.12186 -13.7583 -8.9047
LeftShoulder1  0.0180425 1.42887 -9.76145
LeftArm  -15.4434 14.4257 -72.7749
LeftForeArm  26.9685 -19.8591 -3.64449
LeftHand  0.127426 5.02607 2.52932
HEad  -17.6975 36.7419 -11.7806
RightUpLeg  -6.55659 -7.89607 3.47187
RightLeg  11.456 1.47862 0.203041
RightFoot  -0.86935 -0.00478835 -0.0209439
RightToes  -32.2249 -0.159539 -0.267129
303
root  0.767939 33.7407 -4.80371 -0.217982 38.3801 -5.31931
LeftUpLeg  -15.2675 -4.28816 15.5184
LeftLeg  17.5105 -0.997217 -0.24751
LeftFoot  5.98661 0.0109133 -0.153646
LeftToes  -30.2504 8.556e-007 1.17171e-007
Spine  3.07488 1.93406 2.76475
Spine1  6.09113 3.86008 5.36118
RightShoulder  0.10759 6.5054 7.76276
RightArm  -36.6328 -15.2406 65.7745
RightForeArm  28.3947 16.7998 3.0467
RightHand  1.11747 -13.6206 -8.96238
LeftShoulder1  0.0180425 1.48304 -9.82447
LeftArm  -15.2183 14.3222 -72.9106
LeftForeArm  26.4568 -20.9085 -3.85544
LeftHand  0.127124 4.9036 2.68359
HEad  -17.6479 36.8535 -11.593
RightUpLeg  -6.75527 -8.346 3.9675
RightLeg  11.9594 2.13331 0.31143
RightFoot  -1.20627 -0.00441035 -0.0414248
RightToes  -31.7443 -0.156115 -0.263904
304
root  0.628665 33.7242 -4.72654 -0.444635 38.1577 -5.63898
LeftUpLeg  -15.1306 -4.45724 16.0799
LeftLeg  17.3423 -0.654284 -0.16105
LeftFoot  6.16338 0.00866002 -0.114312
LeftToes  -30.8394 8.556e-007 1.17171e-007
Spine  3.03249 2.02199 2.86068
Spine1  6.00996 4.06544 5.51421
RightShoulder  0.108539 6.48712 7.58778
RightArm  -35.4596 -14.1233 65.5844
RightForeArm  26.6917 18.3316 3.34454
RightHand  1.17177 -13.5041 -9.49854
LeftShoulder1  0.0180425 1.44472 -9.75455
LeftArm  -14.7211 14.3416 -73.0756
LeftForeArm  25.9315 -21.6908 -4.01472
LeftHand  0.127386 4.80242 2.75755
HEad  -16.8223 36.952 -11.2478
RightUpLeg  -6.95582 -9.00043 4.48354
RightLeg  12.3747 2.94882 0.451766
RightFoot  -1.49488 -0.00346886 -0.0709388
RightToes  -31.0117 -0.15095 -0.258936
305
root  0.501938 33.7227 -4.64783 -0.536563 38.0657 -5.88356
LeftUpLeg  -14.9956 -4.60727 16.547
LeftLeg  16.9408 -0.411884 -0.0990379
LeftFoot  6.42919 0.00693825 -0.0835441
LeftToes  -30.9307 8.556e-007 1.17171e-007
Spine  2.95938 2.03222 2.92776
Spine1  5.86925 4.10766 5.62555
RightShoulder  0.103987 6.30231 7.38256
RightArm  -34.4354 -12.9451 65.6753
RightForeArm  25.6933 19.7027 3.61554
RightHand  1.19202 -13.2195 -9.88505
LeftShoulder1  0.0180425 1.45744 -9.66172
LeftArm  -14.2353 14.1863 -73.19
LeftForeArm  25.9123 -22.0206 -4.08234
LeftHand  0.124239 4.82082 2.57713
HEad  -16.427 37.1255 -11.068
RightUpLeg  -7.02372 -9.04354 4.94919
RightLeg  12.3338 3.06522 0.46731
RightFoot  -1.49407 -0.00438274 -0.0720818
RightToes  -30.7154 -0.147804 -0.255853
